<svg xmlns="http://www.w3.org/2000/svg" viewBox="0 0 64 64" width="64" height="64">
  <rect width="64" height="64" rx="14" fill="#16323C"/>
  <!-- mât + voiles -->
  <path d="M31 15 L31 39 L17 39 Z" fill="#FAF8F4"/>
  <path d="M33 21 L33 39 L45 39 Z" fill="#CBB89D"/>
  <rect x="30.4" y="14" width="1.6" height="26" rx="0.8" fill="#FAF8F4"/>
  <!-- vagues -->
  <path d="M12 46c3.2 0 3.2-3 6.4-3s3.2 3 6.4 3 3.2-3 6.4-3 3.2 3 6.4 3 3.2-3 6.4-3 3.2 3 6.4 3"
        fill="none" stroke="#CBB89D" stroke-width="2.4" stroke-linecap="round"/>
  <path d="M12 52c3.2 0 3.2-3 6.4-3s3.2 3 6.4 3 3.2-3 6.4-3 3.2 3 6.4 3 3.2-3 6.4-3 3.2 3 6.4 3"
        fill="none" stroke="#FAF8F4" stroke-width="1.6" stroke-linecap="round" opacity="0.5"/>
</svg>
